# xmcd
#
# Track frame offsets:
#	150
#	20722
#	35752
#	53595
#	71775
#	83190
#	107290
#	130960
#	146167
#	160960
#	180905
#	197970
#	213660
#	222510
#
# Disc length: 3307 seconds
#
# Revision: 5
# Processed by: cddbd v1.5.2PL0 Copyright (c) Steve Scherf et al.
# Submitted via: EZCDAudioConverter 1.2.3.1
#
DISCID=d50ce90e
DTITLE=Dorothèe Berryman
DYEAR=1900
DGENRE=Blues
TTITLE0=Inside a silent tear
TTITLE1=You fascinate me so
TTITLE2=Hard Hearted Hannah
TTITLE3=Lush life
TTITLE4=Me, Myself and I (are all in love with you)
TTITLE5=Les feuilles mortes/Autumn leaves
TTITLE6=Samba Saravah - Samba Da Bençâo
TTITLE7=C'est si bon
TTITLE8=Taking a chance on love
TTITLE9=But beautiful
TTITLE10=Night and day
TTITLE11=How long has this been going on
TTITLE12=No strings (I'm fancy free)
TTITLE13=Here's to life
EXTD=
EXTT0=
EXTT1=
EXTT2=
EXTT3=
EXTT4=
EXTT5=
EXTT6=
EXTT7=
EXTT8=
EXTT9=
EXTT10=
EXTT11=
EXTT12=
EXTT13=
PLAYORDER=
